<svg xmlns="http://www.w3.org/2000/svg" width="1280" height="640" viewBox="0 0 1280 640">
  <defs>
    <filter id="grain">
      <feTurbulence type="fractalNoise" baseFrequency="0.9" numOctaves="2" stitchTiles="stitch" result="n"/>
      <feColorMatrix in="n" type="matrix" values="0 0 0 0 0  0 0 0 0 0  0 0 0 0 0  0 0 0 0.08 0"/>
    </filter>
    <style>
      .display { font-family: 'Fredoka One','Fredoka','Baloo 2',sans-serif; font-weight:700; }
      .body { font-family: 'DM Sans','Outfit',sans-serif; }
    </style>
  </defs>

  <!-- black is dominant -->
  <rect width="1280" height="640" fill="#000000"/>
  <!-- grain texture (brand requirement) -->
  <rect width="1280" height="640" filter="url(#grain)"/>

  <!-- 4-point star cluster, top-right, varied sizes, flat colour -->
  <g fill="#E8000F">
    <path d="M1150 65 L1156 95 L1186 101 L1156 107 L1150 137 L1144 107 L1114 101 L1144 95 Z"/>
    <path d="M1212 138 L1215 153 L1230 156 L1215 159 L1212 174 L1209 159 L1194 156 L1209 153 Z"/>
  </g>
  <path d="M1096 158 L1098 168 L1108 170 L1098 172 L1096 182 L1094 172 L1084 170 L1094 168 Z" fill="#F5F0EB"/>

  <!-- headline: lowercase, Fredoka One -->
  <text x="80" y="232" class="display" font-size="104" fill="#F5F0EB">ai for media</text>
  <text x="80" y="352" class="display" font-size="104" fill="#F5F0EB">that <tspan fill="#E8000F">matters.</tspan></text>

  <!-- heavy punk-red rule, flat -->
  <rect x="80" y="420" width="360" height="6" fill="#E8000F"/>

  <!-- subline: DM Sans -->
  <text x="80" y="478" class="body" font-size="28" fill="#F5F0EB">394 free Claude skills for tv, journalism, podcasts,</text>
  <text x="80" y="514" class="body" font-size="28" fill="#F5F0EB">youtube, radio, newsletters and pr.</text>

  <!-- footer -->
  <text x="80" y="576" class="display" font-size="24" fill="#E8000F">github.com/ur-grue/autopunk-media-skills</text>
  <text x="80" y="612" class="body" font-size="18" fill="#F5F0EB" fill-opacity="0.7">all quality-tested  ·  mit  ·  one-command install</text>
</svg>
